<svg width="19" height="19" viewBox="0 0 19 19" fill="none" xmlns="http://www.w3.org/2000/svg">
<path d="M9.50031 2.36761C11.8233 2.36761 12.0985 2.37648 13.0158 2.41834C13.8641 2.45702 14.3247 2.59875 14.6313 2.71789C15.0374 2.87572 15.3272 3.06424 15.6316 3.36866C15.9361 3.67312 16.1246 3.96293 16.2824 4.36903C16.4016 4.67559 16.5433 5.13625 16.582 5.98448C16.6239 6.90186 16.6327 7.17703 16.6327 9.5C16.6327 11.823 16.6239 12.0982 16.582 13.0156C16.5433 13.8638 16.4016 14.3244 16.2824 14.631C16.1246 15.0371 15.9361 15.3269 15.6317 15.6313C15.3272 15.9358 15.0374 16.1243 14.6313 16.2821C14.3247 16.4013 13.8641 16.543 13.0158 16.5817C12.0986 16.6236 11.8235 16.6324 9.50031 16.6324C7.17713 16.6324 6.90202 16.6236 5.98475 16.5817C5.1365 16.543 4.67585 16.4013 4.36928 16.2821C3.96319 16.1243 3.67337 15.9358 3.36895 15.6313C3.06453 15.3269 2.87597 15.0371 2.71814 14.631C2.599 14.3244 2.45727 13.8638 2.41859 13.0156C2.37673 12.0982 2.36786 11.823 2.36786 9.5C2.36786 7.17703 2.37673 6.90186 2.41859 5.98448C2.45727 5.13625 2.599 4.67559 2.71814 4.36903C2.87597 3.96293 3.06449 3.67312 3.36895 3.3687C3.67337 3.06424 3.96319 2.87572 4.36928 2.71789C4.67585 2.59875 5.1365 2.45702 5.98475 2.41834C6.90213 2.37648 7.1773 2.36761 9.50031 2.36761ZM9.50031 0.800049C7.13751 0.800049 6.84124 0.810064 5.91329 0.852403C4.98728 0.894639 4.35485 1.04172 3.80146 1.25677C3.22936 1.4791 2.74418 1.77658 2.26049 2.26024C1.77683 2.74393 1.47935 3.22911 1.25705 3.80121C1.04197 4.35459 0.894884 4.98702 0.852648 5.91303C0.810308 6.84098 0.800293 7.13725 0.800293 9.5C0.800293 11.8628 0.810308 12.1591 0.852648 13.087C0.894884 14.013 1.04197 14.6454 1.25705 15.1988C1.47935 15.7709 1.77683 16.2561 2.26049 16.7398C2.74418 17.2235 3.22936 17.5209 3.80146 17.7432C4.35485 17.9583 4.98728 18.1054 5.91329 18.1476C6.84124 18.19 7.13751 18.2 9.50031 18.2C11.8631 18.2 12.1593 18.19 13.0873 18.1476C14.0133 18.1054 14.6457 17.9583 15.1991 17.7432C15.7712 17.5209 16.2564 17.2235 16.7401 16.7398C17.2238 16.2561 17.5212 15.7709 17.7436 15.1988C17.9586 14.6454 18.1057 14.013 18.1479 13.087C18.1903 12.1591 18.2003 11.8628 18.2003 9.5C18.2003 7.13725 18.1903 6.84098 18.1479 5.91303C18.1057 4.98702 17.9586 4.35459 17.7436 3.80121C17.5212 3.22911 17.2238 2.74393 16.7401 2.26024C16.2564 1.77658 15.7712 1.4791 15.1991 1.25677C14.6457 1.04172 14.0133 0.894639 13.0873 0.852403C12.1593 0.810064 11.8631 0.800049 9.50031 0.800049Z" fill="#070D59"/>
<path d="M9.50417 5.03662C7.03677 5.03662 5.03659 7.0368 5.03659 9.50416C5.03659 11.9715 7.03677 13.9717 9.50417 13.9717C11.9715 13.9717 13.9717 11.9715 13.9717 9.50416C13.9717 7.0368 11.9715 5.03662 9.50417 5.03662ZM9.50417 12.4042C7.90252 12.4042 6.60416 11.1058 6.60416 9.50416C6.60416 7.90254 7.90252 6.60418 9.50417 6.60418C11.1058 6.60418 12.4042 7.90254 12.4042 9.50416C12.4042 11.1058 11.1058 12.4042 9.50417 12.4042Z" fill="#070D59"/>
<path d="M15.1921 4.85725C15.1921 5.43381 14.7247 5.90123 14.1481 5.90123C13.5716 5.90123 13.1041 5.43381 13.1041 4.85725C13.1041 4.28066 13.5716 3.81323 14.1481 3.81323C14.7247 3.81323 15.1921 4.28066 15.1921 4.85725Z" fill="#070D59"/>
</svg>
