<svg width="20" height="20" viewBox="0 0 20 20" fill="none" xmlns="http://www.w3.org/2000/svg">
<path fill-rule="evenodd" clip-rule="evenodd" d="M11.6666 1.66675C12.5871 1.66675 13.3333 2.41294 13.3333 3.33341C13.3333 4.53952 14.1916 5.55158 15.332 5.78334C16.234 5.96668 16.8166 6.84654 16.6332 7.74857C16.4499 8.65058 15.5701 9.23325 14.668 9.04991C14.2005 8.95483 13.7531 8.80391 13.3333 8.60441V13.3334C13.3333 16.0948 11.0947 18.3334 8.33331 18.3334C5.57189 18.3334 3.33331 16.0948 3.33331 13.3334C3.33331 11.0013 4.92837 9.046 7.08455 8.491C7.97597 8.2616 8.88465 8.79825 9.11406 9.68966C9.34348 10.5811 8.80681 11.4897 7.91541 11.7192C7.1962 11.9042 6.66665 12.5591 6.66665 13.3334C6.66665 14.2539 7.41284 15.0001 8.33331 15.0001C9.25381 15.0001 9.99998 14.2539 9.99998 13.3334V3.33341C9.99998 2.41294 10.7461 1.66675 11.6666 1.66675Z" fill="#070D59"/>
</svg>
