<svg width="19" height="15" viewBox="0 0 19 15" fill="none" xmlns="http://www.w3.org/2000/svg">
<path fill-rule="evenodd" clip-rule="evenodd" d="M18.1996 1.92377C17.5599 2.20795 16.8714 2.39933 16.1494 2.48575C16.8865 2.04382 17.4526 1.34439 17.7188 0.510981C17.0298 0.920433 16.2648 1.2168 15.4523 1.37744C14.801 0.683811 13.8725 0.25 12.8465 0.25C10.8752 0.25 9.27685 1.84837 9.27685 3.81966C9.27685 4.0992 9.30875 4.37178 9.36965 4.63335C6.40257 4.48488 3.77244 3.06339 2.01168 0.903616C1.7043 1.4308 1.52857 2.04382 1.52857 2.69802C1.52857 3.93624 2.15783 5.02889 3.11651 5.66916C2.53074 5.6506 1.98094 5.48995 1.49899 5.22259V5.26725C1.49899 6.99727 2.73025 8.43963 4.36226 8.76847C4.063 8.84967 3.7475 8.89375 3.42215 8.89375C3.1919 8.89375 2.96804 8.87112 2.74997 8.82937C3.20408 10.2474 4.52291 11.2797 6.08475 11.3087C4.86335 12.2656 3.32413 12.8369 1.65152 12.8369C1.3627 12.8369 1.07852 12.8201 0.799561 12.7864C2.37938 13.7991 4.25555 14.3906 6.27149 14.3906C12.8372 14.3906 16.4278 8.95116 16.4278 4.23433C16.4278 4.07948 16.4249 3.92522 16.4173 3.77269C17.1156 3.26812 17.7211 2.63944 18.1996 1.92377Z" fill="#070D59"/>
</svg>
