<svg width="19" height="15" viewBox="0 0 19 15" fill="none" xmlns="http://www.w3.org/2000/svg">
<path fill-rule="evenodd" clip-rule="evenodd" d="M17.6926 1.9742C17.9819 2.26355 18.1904 2.62364 18.2973 3.01864C18.9127 5.49599 18.7705 9.4086 18.3092 11.9816C18.2024 12.3765 17.9939 12.7367 17.7045 13.026C17.4152 13.3153 17.0551 13.5238 16.6601 13.6307C15.2141 14.0251 9.39413 14.0251 9.39413 14.0251C9.39413 14.0251 3.57422 14.0251 2.1282 13.6307C1.73321 13.5238 1.3731 13.3153 1.08375 13.026C0.794408 12.7367 0.58591 12.3765 0.479025 11.9816C-0.140014 9.51496 0.0296846 5.59996 0.467075 3.03059C0.573958 2.6356 0.782456 2.27549 1.07181 1.98615C1.36115 1.6968 1.72126 1.4883 2.11625 1.38142C3.56227 0.987045 9.38218 0.975098 9.38218 0.975098C9.38218 0.975098 15.2021 0.975098 16.6481 1.36946C17.0431 1.47635 17.4032 1.68485 17.6926 1.9742ZM12.3579 7.5001L7.52985 10.2965V4.70366L12.3579 7.5001Z" fill="#070D59"/>
</svg>
